HIERARCHY
ROOT hip
{
	OFFSET 0.000000 0.000000 0.000000 
	CHANNELS 6 Xposition Yposition Zposition Xrotation Zrotation Yrotation
	JOINT abdomen
	{
		OFFSET 0.000000 3.402643 0.000000 
		CHANNELS 3 Xrotation Zrotation Yrotation
		JOINT chest
		{
			OFFSET 0.000000 8.438565 -0.680529 
			CHANNELS 3 Xrotation Zrotation Yrotation
			JOINT neck
			{
				OFFSET 0.000000 10.207942 -0.272212 
				CHANNELS 3 Xrotation Zrotation Yrotation
				JOINT head
				{
					OFFSET 0.000000 3.130431 0.000000 
					CHANNELS 3 Xrotation Zrotation Yrotation
					End Site
					{
						OFFSET 0.000000 3.130435 0.000000 
					}
				}
			}
			JOINT lCollar
			{
				OFFSET 3.470700 6.669187 -0.816635 
				CHANNELS 3 Yrotation Zrotation Xrotation
				JOINT lShldr
				{
					OFFSET 3.198488 0.000000 0.000000 
					CHANNELS 3 Zrotation Yrotation Xrotation
					JOINT lForeArm
					{
						OFFSET 10.139888 0.000000 0.000000 
						CHANNELS 3 Yrotation Zrotation Xrotation
						JOINT lHand
						{
							OFFSET 8.370511 0.000000 0.000000 
							CHANNELS 3 Zrotation Yrotation Xrotation
							End Site
							{
								OFFSET 4.083176 0.000000 0.000000 
							}
						}
					}
				}
			}
			JOINT rCollar
			{
				OFFSET -3.470700 6.669187 -0.816635 
				CHANNELS 3 Yrotation Zrotation Xrotation
				JOINT rShldr
				{
					OFFSET -3.198488 0.000000 0.000000 
					CHANNELS 3 Zrotation Yrotation Xrotation
					JOINT rForeArm
					{
						OFFSET -10.139888 0.000000 0.000000 
						CHANNELS 3 Yrotation Zrotation Xrotation
						JOINT rHand
						{
							OFFSET -8.370511 0.000000 0.000000 
							CHANNELS 3 Zrotation Yrotation Xrotation
							End Site
							{
								OFFSET -4.083176 0.000000 0.000000 
							}
						}
					}
				}
			}
		}
	}
	JOINT lThigh
	{
		OFFSET 5.308129 -1.633274 1.361059 
		CHANNELS 3 Xrotation Zrotation Yrotation
		JOINT lShin
		{
			OFFSET -2.041588 -20.007561 0.000000 
			CHANNELS 3 Xrotation Zrotation Yrotation
			JOINT lFoot
			{
				OFFSET 0.000000 -19.190928 -1.224953 
				CHANNELS 3 Xrotation Yrotation Zrotation
				End Site
				{
					OFFSET 0.000000 -2.449906 4.627600 
				}
			}
		}
	}
	JOINT rThigh
	{
		OFFSET -5.308129 -1.633274 1.361059 
		CHANNELS 3 Xrotation Zrotation Yrotation
		JOINT rShin
		{
			OFFSET 2.041588 -20.007561 0.000000 
			CHANNELS 3 Xrotation Zrotation Yrotation
			JOINT rFoot
			{
				OFFSET 0.000000 -19.190928 -1.224953 
				CHANNELS 3 Xrotation Yrotation Zrotation
				End Site
				{
					OFFSET 0.000000 -2.449906 4.627600 
				}
			}
		}
	}
}
MOTION
Frames: 20
Frame Time: 0.016667
-48.571564 73.988319 -7.720850 -0.625186 -1.396400 -84.867599 -19.512199 -0.214148 2.655360 17.275000 -0.867716 1.241150 21.093058 0.455916 8.680713 -8.603520 0.000000 0.000000 2.000000 -2.000000 0.000000 -88.505096 0.543128 157.382004 23.193600 -0.340515 0.053905 5.567960 -0.243038 -147.388000 -2.000000 2.000000 0.000000 -99.922501 -179.792007 5.312020 -36.797298 0.324326 0.081900 6.202740 2.453380 -136.477005 -15.778713 -0.048357 23.789820 35.649250 2.169273 2.780321 -25.181215 21.492426 12.559205 -6.805561 6.776085 5.491229 30.748932 -3.175642 -2.149464 -29.000021 -26.921597 -11.611741 
-48.807476 73.934280 -7.570700 -0.527573 -1.689380 -81.087997 -19.487000 -0.129562 2.324500 17.646400 -0.351109 1.072540 22.748127 0.747073 9.451162 -8.603520 0.000000 0.000000 2.000000 -2.000000 0.000000 -88.834503 -0.029132 154.697006 20.683800 -0.342752 0.048350 5.553680 -0.430580 -145.326996 -2.000000 2.000000 0.000000 -100.303001 179.912994 4.267800 -37.109798 0.323878 0.082496 6.181830 2.530330 -137.139008 -15.000255 -1.071045 21.312111 34.106403 2.216563 2.700578 -26.368587 21.171137 12.948349 -5.826663 7.024595 4.620571 30.687677 -3.192623 -2.135147 -30.683218 -27.441957 -12.888232 
-48.967445 73.874298 -7.345652 -0.957576 -1.933320 -78.249001 -19.735500 -0.389821 2.826760 17.558500 -0.409595 1.271450 23.492346 0.971727 9.745144 -8.603520 0.000000 0.000000 2.000000 -2.000000 0.000000 -88.582901 -0.814319 148.156006 17.578300 -0.345180 0.041351 5.483790 -0.997915 -139.235992 -2.000000 2.000000 0.000000 -99.697403 -179.731003 2.343120 -37.139000 0.323835 0.082551 6.176010 2.522390 -137.119995 -13.851645 -2.442704 18.952084 32.472046 2.284152 2.587487 -26.366755 19.886620 12.302254 -5.498698 6.621393 3.997307 31.621965 -3.196230 -2.184239 -32.118732 -27.399361 -13.738445 
-49.114605 73.769028 -7.099136 -0.215082 -2.695290 -75.927399 -19.795601 -0.314456 3.278680 17.548500 -0.819182 1.517650 24.009943 -0.155995 9.312253 -8.603520 0.000000 0.000000 2.000000 -2.000000 0.000000 -87.927299 -0.630937 147.080994 16.357599 -0.346030 0.038565 5.475540 -1.030020 -138.912994 -2.000000 2.000000 0.000000 -98.818398 -179.608002 0.448222 -36.982800 0.324060 0.082254 6.217470 2.430910 -136.272995 -13.002203 -1.794282 17.409342 32.561245 2.378193 2.543303 -26.351381 17.364796 10.872096 -4.793044 7.307327 2.895327 32.345619 -3.146549 -2.240304 -32.726158 -27.138750 -14.096857 
-49.173248 73.747459 -6.829131 -1.016650 -2.577720 -73.802002 -19.896200 -0.709226 3.839660 17.519199 -0.867920 1.715970 24.678503 -0.480040 9.402032 -8.603520 0.000000 0.000000 2.000000 -2.000000 0.000000 -87.427101 -0.565834 145.440002 15.508000 -0.346586 0.036615 5.455730 -1.117380 -137.983994 -2.000000 2.000000 0.000000 -98.261703 179.880997 -0.693073 -36.562901 0.324660 0.081451 6.226600 2.386570 -135.873993 -12.351864 -2.883238 17.340229 31.550898 2.372276 2.492714 -24.606047 16.272421 9.719720 -5.807527 5.737103 1.289271 35.310978 -2.981890 -2.447191 -31.905867 -25.540241 -12.978506 
-49.139660 73.717468 -6.562025 -1.739920 -2.489090 -70.949898 -19.831100 -1.118750 3.943220 17.450800 -0.906869 1.699590 24.224056 -0.623838 9.601933 -8.603520 0.000000 0.000000 2.000000 -2.000000 0.000000 -87.142502 -0.577583 144.425003 15.136900 -0.346820 0.035762 5.434370 -1.207140 -136.975998 -2.000000 2.000000 0.000000 -97.753899 179.723007 -1.444650 -37.012100 0.324018 0.082310 6.247860 2.353380 -135.572006 -11.904257 -4.192648 15.945265 30.833553 2.379404 2.449908 -24.049507 15.210355 8.951027 -7.600372 3.948181 -0.841547 39.701012 -2.738186 -2.750990 -29.043859 -23.149628 -10.504621 
-49.110229 73.660515 -6.382362 -2.483270 -2.722050 -67.538399 -19.643101 -1.439370 3.810610 17.128700 -0.682371 1.583840 24.321999 -1.106262 9.659929 -8.603520 0.000000 0.000000 2.000000 -2.000000 0.000000 -86.820503 -0.674764 144.669006 15.058800 -0.346869 0.035581 5.438950 -1.224160 -136.751007 -2.000000 2.000000 0.000000 -97.646500 179.431000 -1.199810 -37.676201 0.323057 0.083569 6.238930 2.366280 -135.718002 -11.214351 -5.115058 14.941314 30.352278 2.374538 2.409239 -22.732191 14.006118 7.888791 -9.123983 2.647943 -1.312131 44.536854 -2.441560 -3.050349 -26.174911 -20.865767 -8.289212 
-49.162918 73.606255 -6.259532 -3.783140 -2.582260 -63.384201 -19.308800 -1.871540 3.769410 17.031200 -0.263173 1.471290 23.647955 -1.775221 9.152881 -8.603520 0.000000 0.000000 2.000000 -2.000000 0.000000 -86.344597 -1.208100 146.584000 15.088100 -0.346851 0.035649 5.455540 -1.117210 -137.973999 -2.000000 2.000000 0.000000 -97.558601 179.595993 -1.629890 -38.613701 0.321675 0.085329 6.290150 2.205090 -134.276993 -10.251022 -6.651224 14.002233 29.350344 2.376965 2.350632 -20.038305 13.919357 6.990999 -10.545501 0.890639 -0.927521 48.983204 -2.148467 -3.307923 -25.035870 -17.026632 -6.259756 
-49.244808 73.646690 -6.174391 -3.792890 -2.572490 -58.921501 -19.188400 -2.117460 3.641010 16.904200 -0.380086 1.381680 23.926056 -1.862507 9.093574 -8.603520 0.000000 0.000000 2.000000 -2.000000 0.000000 -85.526802 -1.711960 148.548004 15.537300 -0.346568 0.036683 5.475540 -1.030020 -138.912994 -2.000000 2.000000 0.000000 -97.070396 -179.975006 -1.796940 -39.180099 0.320827 0.086381 6.295520 2.195590 -134.209000 -10.004242 -6.774589 12.032580 29.111277 2.410616 2.324113 -19.833557 11.563855 5.838321 -11.809791 1.046025 0.680262 51.390625 -1.995713 -3.432351 -24.661617 -12.876236 -4.311128 
-49.389721 73.721176 -6.029294 -3.724320 -2.523960 -54.171902 -19.183800 -2.301530 3.539430 16.757601 -0.613883 1.320060 23.973026 -1.912413 8.792003 -8.603520 0.000000 0.000000 2.000000 -2.000000 0.000000 -84.991898 -2.001240 150.345993 16.396700 -0.346004 0.038654 5.502430 -0.913429 -140.136002 -2.000000 2.000000 0.000000 -96.669998 -179.222000 -1.544820 -39.082401 0.320974 0.086200 6.223120 2.407710 -136.048996 -9.706233 -6.898759 9.811765 28.831270 2.455720 2.281918 -18.402359 10.959925 5.122266 -12.451299 1.399040 2.422470 51.815964 -1.921161 -3.473827 -24.396349 -11.113590 -3.597553 
-49.630127 73.834297 -5.900083 -3.205250 -2.086580 -48.838299 -19.129101 -2.248510 3.207480 17.148399 -0.282702 1.149650 24.300358 -2.237052 8.806126 -8.603520 0.000000 0.000000 2.000000 -2.000000 0.000000 -84.779800 -2.533350 152.729996 17.549000 -0.345201 0.041284 5.524430 -0.716764 -142.315994 -2.000000 2.000000 0.000000 -96.748001 -178.625000 -0.774997 -38.769901 0.321442 0.085620 6.181390 2.530730 -137.149002 -9.913619 -6.848032 7.098979 28.399378 2.456991 2.270574 -18.649712 7.943148 3.906857 -13.138049 2.005614 4.092577 50.806202 -1.953929 -3.438097 -24.588202 -11.226591 -3.853687 
-49.849075 73.922592 -5.805383 -2.736040 -1.999670 -43.898701 -19.131001 -2.220260 3.032780 17.109301 -0.224203 1.077960 26.201481 -1.309382 8.851083 -8.603520 0.000000 0.000000 2.000000 -2.000000 0.000000 -84.508499 -2.939450 154.625000 19.043200 -0.344082 0.044669 5.543890 -0.579967 -143.714005 -2.000000 2.000000 0.000000 -96.455002 -178.126999 -1.020410 -38.115601 0.322413 0.084397 6.189530 2.487810 -136.798996 -9.970940 -6.481148 5.282244 28.071747 2.486722 2.234485 -18.353575 5.446264 2.783287 -13.446105 3.002881 6.370576 48.912174 -2.030951 -3.346087 -25.220236 -11.771110 -4.421471 
-50.097008 74.007858 -5.691684 -3.145140 -1.131110 -39.049198 -18.901199 -2.589560 3.186750 17.314400 -0.185250 1.084710 26.689562 -0.957149 8.573873 -8.603520 0.000000 0.000000 2.000000 -2.000000 0.000000 -83.702003 -3.271910 158.884003 21.132999 -0.342369 0.049352 5.560850 -0.267018 -147.134003 -2.000000 2.000000 0.000000 -96.191299 -177.854004 -1.128530 -37.490601 0.323327 0.083219 6.217950 2.399120 -136.009995 -9.469767 -7.283625 4.018246 26.881611 2.491860 2.159154 -17.687992 2.790864 1.630963 -13.662231 2.582421 8.962564 47.123516 -2.141773 -3.252248 -24.813465 -11.373826 -4.229645 
-50.368977 74.101440 -5.569438 -2.051580 -1.600540 -34.259102 -19.078600 -2.575160 3.059040 17.108999 -0.857820 1.067300 26.200214 -1.280533 8.222640 -8.603520 0.000000 0.000000 2.000000 -2.000000 0.000000 -83.126701 -3.249870 160.007004 23.144800 -0.340561 0.053797 5.566490 -0.112786 -148.774994 -2.000000 2.000000 0.000000 -95.907997 -177.139008 -0.300276 -37.197601 0.323751 0.082663 6.219840 2.410900 -136.126999 -10.207556 -5.888935 2.634994 27.475876 2.544045 2.180134 -17.361568 -0.375884 0.331028 -13.757912 4.253553 11.025042 43.763912 -2.283283 -3.063415 -23.152353 -10.911658 -3.789666 
-50.665100 74.189957 -5.463705 -1.260410 -1.825730 -29.979401 -19.177900 -2.086820 2.999220 16.952999 -0.419092 1.100610 26.323473 -1.352666 8.122656 -8.603520 0.000000 0.000000 2.000000 -2.000000 0.000000 -83.089203 -3.313870 161.940994 24.834299 -0.338922 0.057480 5.572810 0.047029 -150.455002 -2.000000 2.000000 0.000000 -96.454903 -176.776993 0.011299 -36.933998 0.324130 0.082161 6.243390 2.344070 -135.513000 -10.871490 -5.013113 1.318212 27.669546 2.572049 2.183196 -16.423212 -3.260528 -0.712279 -13.980866 5.411300 13.749262 40.590481 -2.404183 -2.901083 -21.267624 -8.871833 -2.658141 
-50.993355 74.267700 -5.375453 -0.791295 -1.523290 -25.682100 -19.264500 -1.989690 2.980530 16.796900 -0.097446 1.100150 27.399580 -2.159159 7.700196 -8.603520 0.000000 0.000000 2.000000 -2.000000 0.000000 -83.040604 -3.459760 162.205002 26.162399 -0.337558 0.060341 5.571970 0.081330 -150.766998 -2.000000 2.000000 0.000000 -96.679497 -176.729004 -0.291557 -36.543301 0.324688 0.081414 6.270150 2.269420 -134.860992 -11.224813 -4.858593 -0.036727 27.244183 2.584635 2.124838 -15.672108 -5.788156 -1.571591 -14.295332 5.834247 16.497213 37.818905 -2.486264 -2.738781 -19.438692 -6.678554 -1.634769 
-51.336098 74.352852 -5.303084 -0.283323 -1.669900 -21.759300 -19.233299 -1.875060 2.980340 16.806601 -0.038979 1.115840 27.045311 -2.065430 8.444922 -8.603520 0.000000 0.000000 2.000000 -2.000000 0.000000 -82.737801 -3.801820 162.087997 26.816700 -0.336861 0.061738 5.571270 0.098631 -151.001007 -2.000000 2.000000 0.000000 -96.962700 -176.921997 0.890577 -36.367599 0.324937 0.081076 6.205630 2.432910 -136.322006 -11.612525 -4.270331 -1.376281 27.113640 2.610849 2.113550 -14.828465 -8.427097 -2.336213 -14.456301 6.669825 19.316957 35.362141 -2.541235 -2.606473 -18.888416 -4.113395 -0.690779 
-51.666145 74.398346 -5.222291 -0.107460 -1.523430 -17.575300 -19.130100 -2.045720 2.858290 16.816401 -0.165662 1.036220 27.677649 -2.292789 8.515550 -8.603520 0.000000 0.000000 2.000000 -2.000000 0.000000 -82.259102 -4.173690 161.746994 27.041300 -0.336619 0.062215 5.569640 0.133359 -151.391998 -2.000000 2.000000 0.000000 -96.943199 -177.391006 0.803884 -36.172199 0.325213 0.080701 6.209910 2.442340 -136.380005 -11.902229 -4.188022 -2.913842 26.944881 2.620798 2.089403 -13.667862 -10.933619 -2.930780 -14.465082 7.141170 22.250975 33.886143 -2.586320 -2.518822 -18.878061 -2.303472 -0.104011 
-52.065620 74.443512 -5.141160 0.039075 -1.474610 -13.780600 -19.062799 -2.061610 2.788160 16.787100 -0.087701 1.001870 29.236338 -3.907496 7.910397 -8.603520 0.000000 0.000000 2.000000 -2.000000 0.000000 -81.867798 -4.478600 160.781006 27.080400 -0.336576 0.062299 5.566830 0.292301 -153.022995 -2.000000 2.000000 0.000000 -97.138603 -177.850006 0.795291 -36.260101 0.325089 0.080870 6.221070 2.409700 -136.097000 -12.086914 -4.048492 -4.572367 26.803511 2.652867 2.069333 -13.091479 -12.568209 -3.303780 -14.380159 7.618245 24.042048 32.833523 -2.604057 -2.444874 -18.610571 0.377227 0.875484 
-52.453075 74.470245 -5.047402 0.312601 -1.455060 -9.705450 -18.892900 -2.277110 2.573890 17.109301 -0.380170 0.882276 29.741486 -3.133056 8.248523 -8.603520 0.000000 0.000000 2.000000 -2.000000 0.000000 -81.193703 -5.084950 160.391998 25.927999 -0.337803 0.059838 5.570730 0.194622 -152.016998 -2.000000 2.000000 0.000000 -97.148399 -178.591003 0.953437 -36.601898 0.324604 0.081526 6.214810 2.419900 -136.175003 -12.534389 -3.995117 -6.713887 26.813475 2.655427 2.079525 -12.762273 -14.066694 -3.700679 -14.229231 7.939929 24.669775 32.088703 -2.596948 -2.425989 -18.119749 2.331785 1.548297 
